HIERARCHY
ROOT Hips
{
	OFFSET 0.000000 83.214638 0.000000
	CHANNELS 6 Xposition Yposition Zposition Xrotation Yrotation Zrotation
	JOINT Pelvis
	{
		OFFSET 0.000000 0.000000 0.000000
		CHANNELS 3 Xrotation Yrotation Zrotation
		JOINT LeftUpLeg
		{
			OFFSET 8.479700 -4.795502 -0.379100
			CHANNELS 3 Xrotation Yrotation Zrotation
			JOINT LeftLeg
			{
				OFFSET 0.024144 -32.555107 0.112900
				CHANNELS 3 Xrotation Yrotation Zrotation
				JOINT LeftFoot
				{
					OFFSET -0.024144 -32.638630 -3.012600
					CHANNELS 3 Xrotation Yrotation Zrotation
					JOINT LeftToeBase
					{
						OFFSET 0.970200 -13.225400 11.864200
						CHANNELS 3 Xrotation Yrotation Zrotation
						End Site
						{
							OFFSET 0.000000 12.319262 0.000000
						}
					}
					JOINT LFootTongue
					{
						OFFSET 1.142400 -1.059800 6.665200
						CHANNELS 3 Xrotation Yrotation Zrotation
						End Site
						{
							OFFSET 0.000000 12.319262 0.000000
						}
					}
				}
				JOINT LeftPantLeg
				{
					OFFSET 0.918482 -16.533964 -2.284700
					CHANNELS 3 Xrotation Yrotation Zrotation
					End Site
					{
						OFFSET 0.350399 24.744368 0.000000
					}
				}
			}
		}
		JOINT RightUpLeg
		{
			OFFSET -8.479700 -4.795502 -0.379100
			CHANNELS 3 Xrotation Yrotation Zrotation
			JOINT RightLeg
			{
				OFFSET -0.023144 -32.555092 0.112900
				CHANNELS 3 Xrotation Yrotation Zrotation
				JOINT RightFoot
				{
					OFFSET 0.023144 -32.638641 -3.012700
					CHANNELS 3 Xrotation Yrotation Zrotation
					JOINT RightToeBase
					{
						OFFSET -0.970200 -13.225400 11.864200
						CHANNELS 3 Xrotation Yrotation Zrotation
						End Site
						{
							OFFSET 0.000000 12.319244 0.000000
						}
					}
					JOINT RFootTongue
					{
						OFFSET -1.142200 -1.059800 6.665200
						CHANNELS 3 Xrotation Yrotation Zrotation
						End Site
						{
							OFFSET 0.000000 12.319243 0.000000
						}
					}
				}
				JOINT RightPantLeg
				{
					OFFSET -0.919482 -16.533978 -2.284800
					CHANNELS 3 Xrotation Yrotation Zrotation
					End Site
					{
						OFFSET -0.350400 24.744419 0.000000
					}
				}
			}
		}
	}
	JOINT Spine
	{
		OFFSET 0.000000 7.722000 1.166200
		CHANNELS 3 Xrotation Yrotation Zrotation
		JOINT Spine1
		{
			OFFSET 0.000000 12.024101 0.248800
			CHANNELS 3 Xrotation Yrotation Zrotation
			JOINT Spine2
			{
				OFFSET 0.000000 11.502998 -0.491200
				CHANNELS 3 Xrotation Yrotation Zrotation
				JOINT Neck
				{
					OFFSET 0.000000 18.430702 -3.123100
					CHANNELS 3 Xrotation Yrotation Zrotation
					JOINT Head
					{
						OFFSET 0.000000 9.051102 1.034000
						CHANNELS 3 Xrotation Yrotation Zrotation
						JOINT HairB
						{
							OFFSET 0.208400 24.786102 24.822300
							CHANNELS 3 Xrotation Yrotation Zrotation
							End Site
							{
								OFFSET 0.000000 32.263779 0.000000
							}
						}
						JOINT HairA
						{
							OFFSET -7.081100 24.428299 23.196600
							CHANNELS 3 Xrotation Yrotation Zrotation
							End Site
							{
								OFFSET 0.000000 32.263779 0.000000
							}
						}
						JOINT Hat
						{
							OFFSET 16.728800 15.048294 -15.439601
							CHANNELS 3 Xrotation Yrotation Zrotation
							End Site
							{
								OFFSET 0.000000 32.263779 0.000000
							}
						}
					}
				}
				JOINT LeftShoulder
				{
					OFFSET 6.197800 13.665199 -4.064700
					CHANNELS 3 Xrotation Yrotation Zrotation
					JOINT LeftArm
					{
						OFFSET 7.778100 -0.187103 -1.709300
						CHANNELS 3 Xrotation Yrotation Zrotation
						JOINT LeftForeArm
						{
							OFFSET 22.049376 0.000000 0.000000
							CHANNELS 3 Xrotation Yrotation Zrotation
							JOINT LeftHand
							{
								OFFSET 23.009392 0.000000 0.000000
								CHANNELS 3 Xrotation Yrotation Zrotation
								JOINT LeftHandThumb1
								{
									OFFSET 3.507191 -2.063065 3.133727
									CHANNELS 3 Xrotation Yrotation Zrotation
									JOINT LeftHandThumb2
									{
										OFFSET 3.101337 -1.790558 1.790558
										CHANNELS 3 Xrotation Yrotation Zrotation
										JOINT LeftHandThumb3
										{
											OFFSET 3.058640 -1.765907 1.765906
											CHANNELS 3 Xrotation Yrotation Zrotation
											End Site
											{
												OFFSET -0.415260 3.926476 -0.049563
											}
										}
									}
								}
								JOINT LeftHandIndex1
								{
									OFFSET 11.334419 -0.901459 3.706815
									CHANNELS 3 Xrotation Yrotation Zrotation
									JOINT LeftHandIndex2
									{
										OFFSET 3.283112 0.000000 0.000000
										CHANNELS 3 Xrotation Yrotation Zrotation
										JOINT LeftHandIndex3
										{
											OFFSET 3.323853 0.000000 0.000000
											CHANNELS 3 Xrotation Yrotation Zrotation
											End Site
											{
												OFFSET -1.135597 3.097809 0.402452
											}
										}
									}
								}
								JOINT LeftHandMiddle1
								{
									OFFSET 11.335861 0.000000 0.000000
									CHANNELS 3 Xrotation Yrotation Zrotation
									JOINT LeftHandMiddle2
									{
										OFFSET 3.410492 0.000000 0.000000
										CHANNELS 3 Xrotation Yrotation Zrotation
										JOINT LeftHandMiddle3
										{
											OFFSET 3.312172 0.000000 0.000000
											CHANNELS 3 Xrotation Yrotation Zrotation
											End Site
											{
												OFFSET -1.150200 3.080154 0.400270
											}
										}
									}
								}
								JOINT LeftHandRing1
								{
									OFFSET 11.514786 -0.013176 -3.003090
									CHANNELS 3 Xrotation Yrotation Zrotation
									JOINT LeftHandRing2
									{
										OFFSET 3.053307 0.000000 0.000000
										CHANNELS 3 Xrotation Yrotation Zrotation
										JOINT LeftHandRing3
										{
											OFFSET 3.295807 0.000000 0.000000
											CHANNELS 3 Xrotation Yrotation Zrotation
											End Site
											{
												OFFSET -1.281006 3.013344 0.375733
											}
										}
									}
								}
								JOINT LeftHandPinky1
								{
									OFFSET 10.518692 -0.960396 -5.730441
									CHANNELS 3 Xrotation Yrotation Zrotation
									JOINT LeftHandPinky2
									{
										OFFSET 2.861649 0.000000 0.000000
										CHANNELS 3 Xrotation Yrotation Zrotation
										JOINT LeftHandPinky3
										{
											OFFSET 2.863380 0.000000 0.000000
											CHANNELS 3 Xrotation Yrotation Zrotation
											End Site
											{
												OFFSET -0.843597 2.711159 0.369971
											}
										}
									}
								}
							}
							JOINT LSleeve
							{
								OFFSET 6.676277 -0.344902 -1.011730
								CHANNELS 3 Xrotation Yrotation Zrotation
								End Site
								{
									OFFSET 0.000000 14.885353 0.000000
								}
							}
						}
					}
				}
				JOINT RightShoulder
				{
					OFFSET -6.197800 13.665199 -4.064700
					CHANNELS 3 Xrotation Yrotation Zrotation
					JOINT RightArm
					{
						OFFSET -7.778100 -0.187103 -1.709300
						CHANNELS 3 Xrotation Yrotation Zrotation
						JOINT RightForeArm
						{
							OFFSET -22.049376 0.000000 0.000000
							CHANNELS 3 Xrotation Yrotation Zrotation
							JOINT RightHand
							{
								OFFSET -23.009392 0.000000 0.000000
								CHANNELS 3 Xrotation Yrotation Zrotation
								JOINT RightHandThumb1
								{
									OFFSET -3.507191 -2.063065 3.133727
									CHANNELS 3 Xrotation Yrotation Zrotation
									JOINT RightHandThumb2
									{
										OFFSET -3.101337 -1.790558 1.790558
										CHANNELS 3 Xrotation Yrotation Zrotation
										JOINT RightHandThumb3
										{
											OFFSET -3.058640 -1.765907 1.765906
											CHANNELS 3 Xrotation Yrotation Zrotation
											End Site
											{
												OFFSET 0.415260 3.926476 -0.049563
											}
										}
									}
								}
								JOINT RightHandIndex1
								{
									OFFSET -11.334419 -0.901459 3.706815
									CHANNELS 3 Xrotation Yrotation Zrotation
									JOINT RightHandIndex2
									{
										OFFSET -3.283112 0.000000 0.000000
										CHANNELS 3 Xrotation Yrotation Zrotation
										JOINT RightHandIndex3
										{
											OFFSET -3.323853 0.000000 0.000000
											CHANNELS 3 Xrotation Yrotation Zrotation
											End Site
											{
												OFFSET 1.135597 3.097809 0.402452
											}
										}
									}
								}
								JOINT RightHandMiddle1
								{
									OFFSET -11.335861 0.000000 0.000000
									CHANNELS 3 Xrotation Yrotation Zrotation
									JOINT RightHandMiddle2
									{
										OFFSET -3.410492 0.000000 0.000000
										CHANNELS 3 Xrotation Yrotation Zrotation
										JOINT RightHandMiddle3
										{
											OFFSET -3.312172 0.000000 0.000000
											CHANNELS 3 Xrotation Yrotation Zrotation
											End Site
											{
												OFFSET 1.150200 3.080154 0.400270
											}
										}
									}
								}
								JOINT RightHandRing1
								{
									OFFSET -11.514786 -0.013176 -3.003090
									CHANNELS 3 Xrotation Yrotation Zrotation
									JOINT RightHandRing2
									{
										OFFSET -3.053307 0.000000 0.000000
										CHANNELS 3 Xrotation Yrotation Zrotation
										JOINT RightHandRing3
										{
											OFFSET -3.295807 0.000000 0.000000
											CHANNELS 3 Xrotation Yrotation Zrotation
											End Site
											{
												OFFSET 1.281006 3.013344 0.375733
											}
										}
									}
								}
								JOINT RightHandPinky1
								{
									OFFSET -10.518692 -0.960396 -5.730441
									CHANNELS 3 Xrotation Yrotation Zrotation
									JOINT RightHandPinky2
									{
										OFFSET -2.861649 0.000000 0.000000
										CHANNELS 3 Xrotation Yrotation Zrotation
										JOINT RightHandPinky3
										{
											OFFSET -2.863380 0.000000 0.000000
											CHANNELS 3 Xrotation Yrotation Zrotation
											End Site
											{
												OFFSET 0.843597 2.711159 0.369971
											}
										}
									}
								}
							}
							JOINT RSleeve
							{
								OFFSET -6.676277 -0.344902 -1.011730
								CHANNELS 3 Xrotation Yrotation Zrotation
								End Site
								{
									OFFSET 0.000000 14.885353 0.000000
								}
							}
						}
					}
				}
				JOINT Backpack
				{
					OFFSET 0.000000 -2.471497 36.677502
					CHANNELS 3 Xrotation Yrotation Zrotation
					End Site
					{
						OFFSET 0.000000 20.427315 0.000000
					}
				}
				JOINT Hood
				{
					OFFSET 0.000000 18.754097 -10.431000
					CHANNELS 3 Xrotation Yrotation Zrotation
					JOINT Hood1
					{
						OFFSET 0.000000 -5.011002 -7.685901
						CHANNELS 3 Xrotation Yrotation Zrotation
						End Site
						{
							OFFSET 0.000000 9.175140 0.000000
						}
					}
				}
				JOINT LHoodieString
				{
					OFFSET 5.250500 16.397697 3.089900
					CHANNELS 3 Xrotation Yrotation Zrotation
					JOINT LHoodieString1
					{
						OFFSET 0.257700 -6.364304 3.694600
						CHANNELS 3 Xrotation Yrotation Zrotation
						JOINT LHoodieString2
						{
							OFFSET 0.000000 -9.643799 2.679100
							CHANNELS 3 Xrotation Yrotation Zrotation
							End Site
							{
								OFFSET 0.000000 10.009018 0.000000
							}
						}
					}
				}
				JOINT RHoodieString
				{
					OFFSET -5.250500 16.397697 3.089900
					CHANNELS 3 Xrotation Yrotation Zrotation
					JOINT RHoodieString1
					{
						OFFSET -0.257700 -6.364304 3.694600
						CHANNELS 3 Xrotation Yrotation Zrotation
						JOINT RHoodieString2
						{
							OFFSET 0.000000 -9.643799 2.679100
							CHANNELS 3 Xrotation Yrotation Zrotation
							End Site
							{
								OFFSET 0.000000 10.009018 0.000000
							}
						}
					}
				}
			}
			JOINT LBackpack_Strap
			{
				OFFSET 15.223200 -7.719803 -6.610900
				CHANNELS 3 Xrotation Yrotation Zrotation
				End Site
				{
					OFFSET 0.000000 16.040596 0.000000
				}
			}
			JOINT RBackpack_Strap
			{
				OFFSET -15.223000 -7.719803 -6.610900
				CHANNELS 3 Xrotation Yrotation Zrotation
				End Site
				{
					OFFSET 0.000000 16.040596 0.000000
				}
			}
		}
	}
	JOINT BoyFacialAnim_Joint
	{
		OFFSET 1.000000 -82.208099 -1.550900
		CHANNELS 3 Xrotation Yrotation Zrotation
		End Site
		{
			OFFSET 0.000000 30.012791 0.000000
		}
	}
}
MOTION
Frames: 4
Frame Time: 0.033333
-3.973999 135.421188 26.425106 -23.799535 1.907204 3.127341 -0.000001 -0.000000 -0.000000 -37.843404 12.496316 8.030558 45.314446 5.559182 -9.811810 1.247757 3.800311 -1.394852 0.000002 -0.000000 -0.000001 0.000002 -0.000000 -0.000001 0.000002 -0.000000 0.000000 -17.543998 -10.735001 -19.601757 19.594155 6.079775 -1.786382 15.726692 8.306257 26.802625 -0.000000 0.000000 -0.000002 -0.000000 0.000000 -0.000002 -0.000003 0.000000 -0.000000 3.504199 -1.833186 -10.191252 4.829642 -0.583337 -2.571925 4.861874 -0.648118 -2.572039 -27.998048 -6.166639 18.454411 -34.294534 12.062950 -19.665633 -0.000001 0.000001 -0.000001 -0.000001 0.000001 -0.000001 -0.000001 0.000001 -0.000001 17.957527 -23.915156 43.298615 -118.492430 -7.783976 -59.978500 0.000107 -68.150931 0.000103 -53.483889 18.829749 30.064970 20.338317 -18.759828 -0.501831 35.737131 41.045773 -21.729260 -0.000001 0.000003 -0.000002 8.538425 12.665187 -47.380729 8.112013 5.397980 -112.767175 -0.000003 -0.000000 -0.000004 3.222899 7.546095 -62.534412 6.522482 5.812555 -96.600622 -0.000003 0.000001 0.000002 4.116628 7.916855 -71.836624 6.652802 5.796067 -97.889219 0.000000 0.000002 -0.000004 5.017043 8.129622 -81.120565 5.191263 5.813873 -83.514055 -0.000000 0.000000 -0.000000 0.000000 0.000001 -0.000000 4.565419 29.397189 7.962680 -64.178226 34.705694 30.307349 0.000040 110.734230 -0.000053 -54.891116 30.717570 -34.986336 19.449425 20.477334 1.050992 36.428490 -42.890105 22.463102 0.000000 0.000001 0.000001 8.022582 -11.755520 46.772551 6.454134 -4.297248 112.718858 -0.000002 0.000000 0.000002 2.510754 -6.383924 61.835717 5.190306 -4.626630 96.580630 -0.000001 0.000000 0.000002 3.221505 -6.689502 71.116633 5.293904 -4.613541 97.866714 0.000001 -0.000000 0.000000 3.931201 -6.866751 80.375521 4.132178 -4.627579 83.520311 -0.000000 -0.000001 0.000000 0.000000 0.000001 -0.000002 -0.000000 0.000000 -0.000000 -0.000000 0.000000 -0.000000 -0.000000 0.000000 -0.000000 -0.000000 0.000000 -0.000000 -0.000000 0.000000 -0.000001 -0.000000 -0.000000 -0.000001 -0.000000 0.000000 -0.000000 -0.000000 0.000000 -0.000001 -0.000000 -0.000000 -0.000001 -0.000002 0.000000 0.000000 -0.000002 0.000000 0.000000 -0.000001 -0.000000 -0.000000 
-3.440111 136.500366 26.290970 -22.876069 0.128819 3.289493 -0.000000 -0.000000 0.000000 -41.510031 13.543388 10.253835 55.007943 3.496191 -9.793377 1.074772 1.376274 -1.915064 -0.000000 0.000000 -0.000001 -0.000000 0.000000 -0.000000 -0.000001 0.000001 -0.000000 -22.990815 -8.227263 -20.337549 33.225284 6.604202 -2.424112 13.356085 6.855463 25.606425 0.000000 0.000001 -0.000002 0.000000 0.000001 -0.000002 0.000000 0.000000 -0.000001 3.582385 -1.524149 -9.001439 4.909975 -0.557407 -2.461174 4.943130 -0.622694 -2.460788 -28.515099 -5.166344 16.727938 -34.370120 12.756827 -18.701147 0.000001 -0.000000 0.000000 0.000001 -0.000000 0.000000 0.000001 -0.000000 0.000000 15.523157 -22.733062 38.426590 -115.922531 -7.357245 -62.773229 -0.000053 -74.457784 -0.000053 -55.457096 17.484460 30.762598 20.335589 -18.758355 -0.505104 35.727733 41.041046 -21.718415 0.000001 -0.000004 0.000001 8.531394 12.662376 -47.363486 8.109940 5.398876 -112.745072 -0.000000 -0.000004 -0.000004 3.220610 7.544923 -62.514249 6.520667 5.812763 -96.582659 0.000004 -0.000001 0.000000 4.115685 7.916571 -71.816680 6.650961 5.796315 -97.870935 -0.000002 -0.000003 -0.000001 5.018103 8.129811 -81.100444 5.189798 5.813721 -83.499466 -0.000003 0.000001 0.000002 -0.000000 0.000001 -0.000002 3.610458 30.138742 9.249875 -61.940827 36.468286 30.860629 0.000072 112.683839 -0.000077 -51.608841 28.646346 -35.176106 19.447678 20.476569 1.052835 36.422394 -42.887362 22.457450 -0.000001 0.000000 0.000001 8.018585 -11.753915 46.762364 6.453162 -4.297669 112.705757 -0.000003 0.000000 -0.000000 2.509635 -6.383310 61.823799 5.189449 -4.626721 96.570016 -0.000005 0.000001 -0.000000 3.221201 -6.689380 71.104851 5.293027 -4.613652 97.855888 -0.000001 0.000000 0.000004 3.932072 -6.866882 80.363630 4.131480 -4.627489 83.511664 -0.000002 -0.000000 -0.000002 0.000001 -0.000001 0.000002 -0.000001 0.000000 -0.000001 -0.000001 0.000000 -0.000001 -0.000001 0.000000 -0.000001 -0.000001 0.000000 -0.000001 -0.000001 0.000000 -0.000001 -0.000000 0.000000 -0.000001 -0.000001 0.000000 -0.000001 -0.000001 0.000000 -0.000001 -0.000000 0.000000 -0.000001 -0.000000 0.000000 0.000000 -0.000000 0.000000 0.000000 -0.000000 -0.000000 0.000000 
-2.922502 137.576324 26.065746 -22.120951 -1.282090 3.977957 -0.000000 0.000000 -0.000001 -45.063997 14.162390 11.610659 64.457328 0.481553 -8.779174 1.737516 0.096421 -1.926349 -0.000001 0.000003 -0.000000 -0.000001 0.000003 -0.000000 0.000000 -0.000001 0.000001 -29.666373 -4.991996 -21.781144 49.582976 7.177858 -3.050786 10.479325 5.881769 24.109495 0.000001 0.000000 -0.000001 0.000001 0.000000 -0.000001 -0.000000 -0.000001 0.000000 3.628361 -1.251542 -8.269044 4.986731 -0.518677 -2.346450 5.021052 -0.586362 -2.344663 -28.820239 -4.070967 14.829396 -34.388582 13.301063 -17.993749 0.000001 -0.000000 -0.000000 0.000001 -0.000000 -0.000000 0.000001 -0.000000 -0.000000 13.258131 -21.169336 34.020814 -112.742661 -7.163247 -64.946110 0.000079 -80.549049 0.000086 -57.278199 16.129695 30.867927 20.336898 -18.758969 -0.503672 35.732432 41.043204 -21.722635 0.000000 -0.000001 0.000001 8.534646 12.663685 -47.371498 8.110909 5.398470 -112.755324 -0.000001 0.000001 -0.000003 3.221669 7.545476 -62.523593 6.521508 5.812652 -96.591012 -0.000000 0.000001 0.000002 4.116114 7.916694 -71.825948 6.651809 5.796205 -97.879404 0.000000 0.000000 -0.000002 5.017584 8.129715 -81.109760 5.190475 5.813805 -83.506227 -0.000002 -0.000001 0.000001 -0.000000 0.000001 0.000001 2.648241 30.842317 10.448329 -59.258011 38.201921 31.488938 0.000143 114.562558 -0.000140 -48.019689 26.434488 -35.528995 19.449647 20.477628 1.050467 36.429063 -42.890624 22.465833 0.000000 0.000000 -0.000000 8.023298 -11.755800 46.774420 6.454317 -4.297161 112.721207 -0.000003 0.000001 0.000002 2.510954 -6.384022 61.837889 5.190464 -4.626618 96.582590 0.000004 -0.000001 0.000001 3.221575 -6.689510 71.118785 5.294058 -4.613515 97.868674 0.000003 -0.000001 0.000002 3.931030 -6.866709 80.377680 4.132308 -4.627583 83.521896 -0.000001 -0.000001 0.000000 0.000000 0.000001 0.000000 0.000000 0.000000 0.000000 0.000000 0.000000 0.000000 0.000000 0.000000 0.000000 0.000000 0.000000 0.000000 0.000000 0.000000 0.000001 0.000000 0.000000 0.000000 0.000000 0.000000 0.000000 0.000000 0.000000 0.000001 0.000000 0.000000 0.000000 0.000000 0.000000 -0.000000 0.000000 0.000000 -0.000000 -0.000000 0.000000 -0.000001 
-2.349288 138.638580 25.690756 -21.492474 -2.410212 4.821223 0.000000 0.000000 -0.000000 -48.898082 14.130093 12.224489 74.227170 -3.099815 -6.805718 2.552002 0.042356 -1.462819 -0.000000 0.000000 0.000000 -0.000000 0.000000 0.000000 -0.000001 0.000001 0.000000 -35.974555 -1.480739 -23.256769 65.114850 7.485787 -3.626562 8.609254 5.040104 22.392483 -0.000000 0.000000 -0.000002 -0.000000 0.000000 -0.000002 0.000000 -0.000000 0.000000 3.657456 -0.960228 -7.624476 5.060826 -0.463398 -2.189690 5.096149 -0.533390 -2.186139 -28.771065 -2.930365 12.861531 -34.564350 13.792908 -17.606182 0.000003 0.000000 -0.000000 0.000003 0.000000 -0.000000 0.000003 0.000000 -0.000000 11.347605 -19.856151 30.064116 -109.208106 -7.379574 -66.117167 0.000989 -86.230284 0.000974 -59.442556 14.993959 30.753360 20.338434 -18.759757 -0.501878 35.737759 41.045776 -21.728336 0.000001 -0.000000 -0.000001 8.538526 12.665227 -47.381005 8.112034 5.397988 -112.767530 -0.000003 0.000004 -0.000006 3.222935 7.546118 -62.534740 6.522492 5.812532 -96.600916 0.000002 -0.000002 0.000002 4.116618 7.916847 -71.836945 6.652812 5.796064 -97.889527 0.000002 0.000002 -0.000004 5.017009 8.129632 -81.120886 5.191292 5.813895 -83.514294 -0.000002 0.000001 -0.000002 -0.000000 0.000000 -0.000000 1.695844 31.509917 11.533907 -56.101063 39.854857 31.884976 -0.000066 116.268849 0.000065 -44.435329 24.264857 -35.883970 19.455685 20.480406 1.043883 36.449697 -42.900254 22.486672 0.000000 0.000001 -0.000001 8.037166 -11.761303 46.809954 6.457727 -4.295751 112.766799 -0.000002 0.000001 -0.000002 2.514897 -6.386120 61.879451 5.193450 -4.626246 96.619624 0.000003 -0.000000 -0.000000 3.222639 -6.689854 71.159807 5.297087 -4.613090 97.906390 -0.000001 -0.000000 0.000000 3.927965 -6.866202 80.419105 4.134729 -4.627870 83.551956 -0.000002 -0.000001 0.000000 0.000001 0.000001 -0.000004 0.000000 -0.000000 -0.000000 0.000000 -0.000000 -0.000000 0.000000 -0.000000 -0.000000 0.000000 -0.000000 -0.000000 0.000000 -0.000000 -0.000000 0.000000 -0.000000 -0.000000 0.000000 -0.000000 -0.000000 0.000000 -0.000000 -0.000000 0.000000 -0.000000 -0.000000 0.000001 0.000000 -0.000000 0.000001 0.000000 -0.000000 0.000000 0.000000 -0.000000 
